<?xml version='1.0' encoding='utf-8'?>
<svg xmlns="http://www.w3.org/2000/svg" width="64px" height="64px" viewBox="0 0 64 64" version="1.1" id="svg5">
  <style>
  :root {
    --foreground: #000000;
  }
</style>
  <defs id="defs2">
    </defs>
  <g id="layer1" transform="matrix(0.360169, 0, 0, 0.375211, -0.391829, -0.975203)" style="">
    <path style="fill: var(--foreground); stroke-width: 0.264583;" d="m 85.251784,172.99068 c -6.46051,-0.87303 -13.47213,-3.72807 -19.25821,-7.84171 -2.78221,-1.97802 -9.39767,-8.54768 -11.58625,-11.50602 -5.19545,-7.0228 -9.26521,-15.38523 -11.5187,-23.66828 -0.3905,-1.43537 -0.79186,-2.7033 -0.89191,-2.81762 -0.10005,-0.11433 -3.41733,0.7102 -7.37174,1.83228 l -7.18984,2.04015 -0.5129,1.7396 c -0.2821,0.95677 -1.72111,6.26338 -3.1978,11.79246 -1.4767,5.52908 -2.7823,10.23486 -2.90134,10.4573 -0.68396,1.27797 -11.4130802,10.13414 -15.3964097,12.70869 -2.22552,1.43843 -3.90724,1.3741 -4.29334,-0.16422 -0.26657001,-1.06213 0.60196,-2.56107 3.60648,-6.22419 4.9628395,-6.0507 7.8352297,-9.72388 7.9835697,-10.2093 0.41247,-1.3497 4.81706,-17.91083 5.61682,-21.11907 1.244,-4.9903 1.60602,-6.0449 2.29839,-6.69534 0.35012,-0.32893 4.07838,-1.74749 9.18563,-3.49502 4.72796,-1.61776 9.01302,-3.08521 9.52235,-3.261 l 0.92604,-0.31961 -0.0777,-2.50723 c -0.0428,-1.37897 -0.16182,-3.93189 -0.26459,-5.67317 l -0.18684,-3.16594 -2.77813,-1.15725 c -1.52797,-0.63649 -4.58367,-1.92347 -6.79044,-2.85997 l -4.01233,-1.702718 -2.71373,2.850918 c -7.45478,7.83162 -13.8312202,13.52145 -15.8213397,14.1177 -1.39512,0.41799 -2.27263,0.15985 -2.66337,-0.78347 -0.58233,-1.40586 -0.005,-2.20515 13.5470097,-18.750168 3.62045,-4.4201 5.46325,-6.46723 5.92633,-6.58346 0.63496,-0.15936 5.0163,0.70795 13.01936,2.57724 1.79828,0.42003 3.35513,0.7637 3.45967,0.7637 0.10453,0 0.3988,-1.22039 0.65394,-2.71198 0.25513,-1.49159 0.8724,-4.42724 1.3717,-6.52366 0.49931,-2.09642 0.87533,-3.84418 0.83562,-3.8839 -0.0397,-0.0397 -2.69009,-0.90326 -5.88971,-1.91898 -10.0991,-3.205954 -9.44019,-2.664754 -10.84321,-8.906284 -0.52338,-2.32833 -1.48276,-6.59751 -2.13195,-9.48706 -0.6492,-2.88956 -1.26182,-5.38987 -1.3614,-5.55625 -0.0996,-0.16639 -1.45876,-1.67174 -3.02042,-3.34523 -7.55707,-8.09822 -9.07936,-10.4697 -7.64281,-11.90625 0.9603,-0.9603 2.23898,-0.62492 4.89479,1.28386 4.71664,3.38993 10.5026,7.82915 11.046,8.47495 0.47672,0.56655 1.34113,3.23922 3.35871,10.38485 1.49423,5.29208 2.73974,9.64758 2.76781,9.67888 0.0281,0.0313 3.24654,0.46446 7.15216,0.96257 l 7.10111,0.90565 2.14648,-1.39394 c 7.16443,-4.65267 16.28587,-7.72124 27.54648,-9.26699 4.20939,-0.57783 14.05179,-0.79946 18.38713,-0.41404 11.703516,1.04046 23.262566,4.62648 30.824156,9.56274 1.10107,0.71879 2.31022,1.30689 2.68698,1.30689 0.79429,0 13.30149,-1.55796 13.76354,-1.71445 0.36033,-0.12205 0.90464,-1.86757 3.67317,-11.7793 1.11778,-4.00182 2.2267,-7.61037 2.46426,-8.01899 0.37529,-0.64551 9.29889,-7.53292 12.36732,-9.54533 2.24341,-1.47134 4.07198,-1.02946 4.07198,0.984 0,1.43326 -1.66093,3.59113 -8.48533,11.02407 l -2.55068,2.77812 -1.64887,7.9375 c -2.42651,11.68095 -2.36885,11.45963 -3.24577,12.45838 -0.80394,0.91564 -2.47851,1.54339 -11.91674,4.467304 -1.70987,0.52971 -3.10886,1.05256 -3.10886,1.1619 0,0.10934 0.40686,1.97795 0.90413,4.15249 0.49727,2.17452 1.10496,5.05501 1.35041,6.40108 0.24545,1.34607 0.47439,2.4474 0.50875,2.4474 0.0344,0 1.00426,-0.24144 2.15533,-0.53654 3.60416,-0.92399 12.80977,-2.90305 13.50355,-2.90305 0.36444,0 0.89094,0.1222 1.17,0.27155 0.51759,0.277 4.93906,5.51671 12.05046,14.280538 7.03325,8.6675 7.55916,9.46871 7.09033,10.80183 -0.32925,0.93623 -1.3746,1.28306 -2.68438,0.89064 -1.627,-0.48746 -5.79638,-4.11509 -12.46205,-10.84278 -5.96108,-6.016538 -6.2038,-6.226458 -6.87917,-5.949688 -0.38504,0.15779 -3.02179,1.293858 -5.85944,2.524598 -2.83766,1.23073 -5.58778,2.39059 -6.11138,2.57746 l -0.952,0.33976 -0.2123,4.52544 c -0.11677,2.48899 -0.22415,5.06064 -0.23863,5.71477 l -0.0263,1.18932 3.175,1.11663 c 1.74625,0.61415 5.91343,2.03049 9.26041,3.14742 3.34698,1.11693 6.47036,2.3162 6.94085,2.66504 0.97309,0.7215 0.73995,0.0105 3.62816,11.06518 1.10257,4.2201 2.57289,9.82124 3.26738,12.44696 l 1.26272,4.77405 2.22842,2.76658 c 1.22563,1.52162 3.73363,4.61204 5.57332,6.86762 3.70974,4.54835 3.95437,4.92119 3.95437,6.02701 0,1.57412 -1.54616,2.08269 -3.42216,1.12563 -2.50154,-1.2762 -12.49277,-9.26095 -15.11125,-12.07657 l -1.2032,-1.29378 -3.39414,-11.92146 -3.39413,-11.92146 -6.77975,-1.93797 c -3.72886,-1.06588 -6.9679,-1.99037 -7.19788,-2.05443 -0.33307,-0.0928 -0.5688,0.466 -1.15885,2.74693 -2.95146,11.40935 -8.11634,21.07878 -15.2107,28.47674 -7.28623,7.59803 -15.38982,12.2966 -24.487316,14.19806 -3.06624,0.64088 -9.31146,0.90908 -12.17083,0.52269 z m 4.97217,-63.55129 c 0.0858,-1.63711 0.34497,-6.19125 0.5759,-10.120308 0.48941,-8.32671 0.82346,-19.984 0.89657,-31.286984 l 0.0518,-8.00365 h -1.85914 -1.85914 l 0.003,5.09323 c 0.003,6.38293 0.44415,23.490294 0.78576,30.493234 0.5571,11.420578 0.90009,16.801048 1.07101,16.801048 0.0982,0 0.24881,-1.33946 0.33462,-2.97657 z M 57.338244,61.833408 c 0.80037,-0.77444 1.96921,-1.8248 2.59742,-2.33412 l 1.14222,-0.92604 -0.5264,-1.19063 c -2.47004,-5.58683 -0.25688,-15.23663 5.13367,-22.38383 0.93899,-1.24499 1.70726,-2.35328 1.70726,-2.46287 0,-0.344366 -4.6618,-6.809793 -7.28183,-10.099122 -1.38032,-1.732938 -4.64562,-5.641998 -7.25622,-8.686802 -2.6106,-3.044801 -5.16512,-6.0843761 -5.67673,-6.7546081 -1.98991,-2.606932 -1.32387,-4.75837 1.31958,-4.262456 1.37804,0.258524 4.86727,3.036924 8.97929,7.150036 5.59736,5.5988421 9.47457,10.6651161 12.61004,16.4772601 0.72616,1.346067 1.36169,2.447395 1.4123,2.447395 0.0506,0 0.96306,-0.656264 2.02768,-1.458364 9.83364,-7.408799 22.3123,-7.484734 32.618576,-0.198496 l 1.84333,1.303173 1.41882,-2.401046 c 4.06611,-6.88101 10.51638,-14.444008 17.37978,-20.3779661 3.59523,-3.108359 5.23506,-3.731821 6.44051,-2.448684 1.20609,1.283827 0.56525,2.607966 -3.41933,7.0651921 -6.48452,7.253713 -15.27805,18.232262 -17.51483,21.866927 -0.10953,0.177988 0.52501,1.255451 1.50302,2.552181 0.93092,1.23428 2.11626,2.96706 2.6341,3.8506 3.80596,6.49388 4.87242,13.72784 2.75087,18.65951 l -0.56251,1.30759 0.89747,0.68396 c 1.62841,1.24101 4.5209,3.79087 4.41753,3.89425 -0.0558,0.0558 -2.39238,-0.66836 -5.19235,-1.60929 -21.505866,-7.22703 -37.652296,-7.16948 -58.235236,0.20756 -4.92493,1.76513 -4.85636,1.76234 -3.16803,0.12869 z" id="path836" />
  </g>
</svg>