<?xml version="1.0" encoding="utf-8"?>
<svg xmlns="http://www.w3.org/2000/svg" viewBox="0 0 64 64">
  <style>
    :root {
      --foreground: currentColor;
    }
  </style>
  <path d="M 12 4 L 32 4 L 52 24 L 52 60 L 12 60 L 12 4 Z" style="fill: none; stroke: var(--foreground); stroke-width: 3px; stroke-linecap: round; stroke-linejoin: round;" />
  <path d="M 32 4 C 32 4 32 24 32 24 C 32 24 52 24 52 24 L 32 4" style="fill: none; stroke: var(--foreground); stroke-width: 3px; stroke-linecap: round; stroke-linejoin: round;" />
  <path d="M 15.876 48.2 C 19.656 40.2 28 38.476 32 40 C 38.49 41.81 41.31 48 48 48" style="fill: none; stroke: var(--foreground); stroke-width: 3px; stroke-linecap: round;" />
  <ellipse cx="22.465" cy="35.47" rx="3.495" ry="3.47" style="stroke: var(--foreground); stroke-width: 3px; stroke-linecap: round; fill: none;" />
  <path d="M 18.97 31.351 L 16 28" style="fill: none; stroke: var(--foreground); stroke-width: 3px; stroke-linecap: round;" />
  <path d="M 23.763 30.053 L 25.261 25.86" style="fill: none; stroke: var(--foreground); stroke-width: 3px; stroke-linecap: round;" />
  <path d="M 27.257 34.346 L 32 32" style="fill: none; stroke: var(--foreground); stroke-width: 3px; stroke-linecap: round;" />
  <path d="M 17.673 36 L 13.878 36" style="fill: none; stroke: var(--foreground); stroke-width: 3px; stroke-linecap: round;" />
</svg>
